<?xml version="1.0" standalone="no"?><!DOCTYPE svg PUBLIC "-//W3C//DTD SVG 1.1//EN" "http://www.w3.org/Graphics/SVG/1.1/DTD/svg11.dtd"><svg t="1716095327851" class="icon" viewBox="0 0 1024 1024" version="1.1" xmlns="http://www.w3.org/2000/svg" p-id="34238" xmlns:xlink="http://www.w3.org/1999/xlink" width="200" height="200"><path d="M218.624 998.912H135.68c-52.736 0-95.744-43.008-95.744-95.744V138.752c0-52.736 43.008-95.744 95.744-95.744h82.432c52.736 0 95.744 43.008 95.744 95.744v764.928c0 52.736-42.496 95.232-95.232 95.232zM135.68 94.208c-24.064 0-44.544 20.48-44.544 44.544v764.416c0 24.064 20.48 44.544 44.544 44.544h82.944c24.064 0 44.032-19.968 44.032-44.032V138.752c0-24.064-20.48-44.544-44.544-44.544H135.68z" p-id="34239"></path><path d="M177.152 519.168c-14.336 0-25.6-11.264-25.6-25.6V195.584c0-14.336 11.264-25.6 25.6-25.6s25.6 11.264 25.6 25.6v297.984c0 14.336-11.264 25.6-25.6 25.6zM201.728 759.296H148.992c-14.336 0-25.6-11.264-25.6-25.6s11.264-25.6 25.6-25.6h52.736c14.336 0 25.6 11.264 25.6 25.6s-11.264 25.6-25.6 25.6zM201.728 863.744H148.992c-14.336 0-25.6-11.264-25.6-25.6s11.264-25.6 25.6-25.6h52.736c14.336 0 25.6 11.264 25.6 25.6s-11.264 25.6-25.6 25.6zM560.128 998.912h-81.92c-52.736 0-95.744-43.008-95.744-95.744V138.752c0-52.736 43.008-95.744 95.744-95.744h82.432c52.736 0 95.744 43.008 95.744 95.744v764.928c-0.512 52.736-44.032 95.232-96.256 95.232z m-81.92-904.704c-24.064 0-44.544 20.48-44.544 44.544v764.416c0 24.064 20.48 44.544 44.544 44.544h81.92c24.576 0 44.544-19.968 45.056-44.544V138.752c0-24.064-20.48-44.544-44.544-44.544H478.208z" p-id="34240"></path><path d="M518.656 519.168c-14.336 0-25.6-11.264-25.6-25.6V195.584c0-14.336 11.264-25.6 25.6-25.6s25.6 11.264 25.6 25.6v297.984c0 14.336-11.264 25.6-25.6 25.6zM543.744 759.296H491.52c-14.336 0-25.6-11.264-25.6-25.6s11.264-25.6 25.6-25.6h52.224c14.336 0 25.6 11.264 25.6 25.6s-11.264 25.6-25.6 25.6zM543.744 863.744H491.52c-14.336 0-25.6-11.264-25.6-25.6s11.264-25.6 25.6-25.6h52.224c14.336 0 25.6 11.264 25.6 25.6s-11.264 25.6-25.6 25.6zM902.656 1008.64h-82.432c-52.736 0-95.744-43.008-95.744-95.744V148.992c0-52.736 43.008-95.744 95.744-95.744h82.432c52.736 0 95.744 43.008 95.744 95.744v764.928c0 51.2-44.032 94.72-95.744 94.72zM820.224 104.448c-24.064 0-44.544 20.48-44.544 44.544v763.904c0 24.064 20.48 44.544 44.544 44.544h82.432c24.064 0 44.544-19.968 44.544-43.52V148.992c0-24.064-20.48-44.544-44.544-44.544h-82.432z" p-id="34241"></path><path d="M861.184 529.408c-14.336 0-25.6-11.264-25.6-25.6V205.312c0-14.336 11.264-25.6 25.6-25.6s25.6 11.264 25.6 25.6v298.496c0 14.336-11.264 25.6-25.6 25.6zM886.272 769.536h-52.224c-14.336 0-25.6-11.264-25.6-25.6s11.264-25.6 25.6-25.6h52.224c14.336 0 25.6 11.264 25.6 25.6s-11.264 25.6-25.6 25.6zM886.272 873.984h-52.224c-14.336 0-25.6-11.264-25.6-25.6s11.264-25.6 25.6-25.6h52.224c14.336 0 25.6 11.264 25.6 25.6s-11.264 25.6-25.6 25.6z" p-id="34242"></path></svg>