<?xml version="1.0" standalone="no"?><!DOCTYPE svg PUBLIC "-//W3C//DTD SVG 1.1//EN" "http://www.w3.org/Graphics/SVG/1.1/DTD/svg11.dtd"><svg t="1716095435768" class="icon" viewBox="0 0 1118 1024" version="1.1" xmlns="http://www.w3.org/2000/svg" p-id="35262" xmlns:xlink="http://www.w3.org/1999/xlink" width="218.359375" height="200"><path d="M244.184615 685.292308c15.753846 0 31.507692-7.876923 39.384616-15.753846l196.923077-228.43077 157.538461 173.292308c15.753846 15.753846 39.384615 23.630769 63.015385 23.630769 23.630769 0 47.261538-7.876923 63.015384-23.630769l252.061539-259.938462c7.876923-7.876923 15.753846-23.630769 15.753846-31.507692s-7.876923-23.630769-15.753846-31.507692c-7.876923-7.876923-23.630769-15.753846-39.384615-15.753846s-23.630769 7.876923-39.384616 15.753846L693.169231 543.507692 527.753846 370.215385c-15.753846-15.753846-39.384615-31.507692-63.015384-31.507693-23.630769 0-47.261538 7.876923-63.015385 31.507693l-212.676923 236.307692c-15.753846 15.753846-15.753846 39.384615-7.876923 55.138461 23.630769 7.876923 39.384615 23.630769 63.015384 23.63077z m811.323077 220.553846h-945.230769s-7.876923 0-7.876923-7.876923V55.138462C102.4 23.630769 78.769231 7.876923 55.138462 7.876923 23.630769 7.876923 7.876923 31.507692 7.876923 55.138462v842.830769c0 63.015385 47.261538 110.276923 110.276923 110.276923h945.230769c15.753846 0 23.630769-7.876923 39.384616-15.753846 7.876923-7.876923 15.753846-23.630769 15.753846-31.507693 0-15.753846-7.876923-23.630769-15.753846-39.384615-23.630769-15.753846-39.384615-15.753846-47.261539-15.753846z" p-id="35263"></path></svg>