<?xml version="1.0" standalone="no"?><!DOCTYPE svg PUBLIC "-//W3C//DTD SVG 1.1//EN" "http://www.w3.org/Graphics/SVG/1.1/DTD/svg11.dtd"><svg t="1716094069015" class="icon" viewBox="0 0 1024 1024" version="1.1" xmlns="http://www.w3.org/2000/svg" p-id="10891" xmlns:xlink="http://www.w3.org/1999/xlink" width="200" height="200"><path d="M897.536 107.52h-253.44c-53.76 0-101.376 25.6-131.584 65.536-30.208-40.448-78.336-67.072-132.608-67.072H126.464C56.832 105.984 0 162.816 0 232.448v506.88C0 808.96 56.832 865.28 125.952 865.28h229.376c31.232 0 60.416 14.848 78.848 39.936l41.472 55.296c2.56 3.584 6.144 6.656 9.728 9.216 6.656 4.608 14.848 7.168 23.04 7.168h5.632c7.68 0 14.848-2.048 20.992-5.632 5.632-2.56 10.24-6.656 14.336-11.776l39.424-52.736c18.432-25.088 48.128-39.936 78.848-39.936h229.376c69.632 0 125.952-56.832 125.952-125.952v-506.88C1024 164.352 967.168 107.52 897.536 107.52zM355.84 799.744H125.952c-33.28 0-59.904-27.136-59.904-59.904v-506.88c0-33.28 27.136-60.416 60.416-60.416h253.44c54.784 0 99.328 44.544 99.328 99.328V855.04c-31.232-34.816-76.288-55.296-123.392-55.296z m602.112-58.368c0 33.28-27.136 59.904-59.904 59.904h-229.376c-47.104 0-92.16 20.48-123.392 55.296v-583.68c0-54.784 44.544-99.328 99.328-99.328h253.44c33.28 0 60.416 27.136 60.416 60.416v507.392z" fill="#040000" p-id="10892"></path></svg>