<?xml version="1.0" standalone="no"?><!DOCTYPE svg PUBLIC "-//W3C//DTD SVG 1.1//EN" "http://www.w3.org/Graphics/SVG/1.1/DTD/svg11.dtd"><svg t="1715750027495" class="icon" viewBox="0 0 1024 1024" version="1.1" xmlns="http://www.w3.org/2000/svg" p-id="18304" xmlns:xlink="http://www.w3.org/1999/xlink" width="200" height="200"><path d="M66.87446 866.131867V61.279445H774.754399c49.573664 0 90.192085 41.993691 90.192085 93.966081v292.548583h64.061967v-303.198925c0-79.541743-62.942562-144.563201-140.917138-144.563201H0.12592v879.436799c0 79.50976 65.501202 144.33932 143.443795 144.33932h401.482713v-63.902052H156.90663c-49.541681-0.031983-90.03217-41.833776-90.03217-93.774183z m512.495736-389.041321H183.740375c-14.008558 0-25.362526 19.317737-25.362526 33.294312 0 13.944592 11.353968 30.60774 25.362526 30.60774h395.629821c14.008558 0 25.362526-16.663148 25.362527-30.60774 0-13.976575-11.353968-33.294312-25.362527-33.294312z m-93.902114 290.021925c13.976575 0 25.362526-19.317737 25.362526-33.294312s-11.353968-30.60774-25.362526-30.60774H183.740375c-14.008558 0-25.362526 16.631165-25.362526 30.60774s11.353968 33.294312 25.362526 33.294312h301.727707zM184.156154 223.785114c-14.008558 0-25.362526 16.663148-25.362526 30.639723 0 13.944592 11.353968 30.639723 25.362526 30.639722h579.851954c14.008558 0 25.362526-16.663148 25.362526-30.639722 0-13.976575-11.353968-30.639723-25.362526-30.639723H184.156154z m486.845363 588.679264c-11.705781 0-31.88706 7.963769-31.88706 17.814536v175.90655c0 9.786801 20.181279 17.814536 31.88706 17.814536s34.573633-7.995752 34.573633-17.814536v-175.90655c0-9.818784-22.867851-17.814536-34.573633-17.814536z m134.520536-100.55458c-13.560796 0-37.931849 9.179124-37.931848 20.469126v271.183933c0 11.321985 24.371053 20.501109 37.931848 20.501109 13.560796 0 29.904113-9.179124 29.904114-20.469126v-271.215916c0-11.290002-16.343318-20.469126-29.904114-20.469126z m160.714621 0c-13.560796 0-37.899866 9.179124-37.899866 20.469126v271.087984c0 11.321985 19.733517 20.277228 33.262329 20.277228s31.88706-8.987226 31.88706-20.277228v-270.960052c0.095949-7.54799-9.371022-20.597058-27.249523-20.597058z m45.447855-170.341506l-70.522534-15.415811-0.319831 0.031984c-0.543711 0-12.793204 0.383796-15.032014 11.673798a19.34972 19.34972 0 0 0 2.142862 13.368898c2.206828 3.837961 5.501078 6.460568 9.339038 7.388075l29.904114 7.54799-95.597214 89.872255-84.115314-83.891433a16.439267 16.439267 0 0 0-12.505356-6.17272 15.73564 15.73564 0 0 0-10.810257 4.445638l-130.874473 123.006653c-7.420058 6.972296-8.699378 19.797483-2.878471 28.59281a16.599182 16.599182 0 0 0 13.752694 7.86782 15.73564 15.73564 0 0 0 10.810257-4.445638l119.648437-112.356311 83.155823 82.995908c3.230284 3.166318 7.356092 4.8934 11.609832 4.829435a15.511759 15.511759 0 0 0 14.520286-3.997876l102.057782-95.885061-6.332636 35.469157c-1.695099 9.466971 3.454165 18.742043 11.481901 20.724989a13.017085 13.017085 0 0 0 3.166318 0.41578c7.036262 0 13.177-5.884874 14.552269-13.944592l14.488303-81.300809c1.631133-9.403005-3.486148-18.71006-11.641816-20.820939z" fill="#040000" p-id="18305"></path></svg>