<?xml version="1.0" standalone="no"?><!DOCTYPE svg PUBLIC "-//W3C//DTD SVG 1.1//EN" "http://www.w3.org/Graphics/SVG/1.1/DTD/svg11.dtd"><svg t="1716095636877" class="icon" viewBox="0 0 1024 1024" version="1.1" xmlns="http://www.w3.org/2000/svg" p-id="35846" xmlns:xlink="http://www.w3.org/1999/xlink" width="200" height="200"><path d="M816.878933 801.570133H207.104a155.938133 155.938133 0 0 1-155.776-155.818666v-413.952A155.9296 155.9296 0 0 1 207.104 76.023467h609.774933a155.938133 155.938133 0 0 1 155.776 155.776v413.952a156.0064 156.0064 0 0 1-155.776 155.818666zM207.0784 143.146667A88.8064 88.8064 0 0 0 118.3744 231.850667v413.9008a88.8064 88.8064 0 0 0 88.704 88.704h609.800533a88.8064 88.8064 0 0 0 88.746667-88.704v-413.952a88.8064 88.8064 0 0 0-88.746667-88.695467H207.104z" fill="#2E3138" p-id="35847"></path><path d="M723.652267 947.968H297.198933a33.536 33.536 0 1 1 0-67.072h426.5216a33.536 33.536 0 1 1-0.059733 67.072z" fill="#2E3138" p-id="35848"></path><path d="M302.737067 582.818133a33.5616 33.5616 0 0 1-33.536-33.536V447.445333a33.536 33.536 0 0 1 67.072 0v101.8368a33.527467 33.527467 0 0 1-33.536 33.536z m408.635733 0a33.5616 33.5616 0 0 1-33.536-33.536v-162.986666a33.536 33.536 0 1 1 67.072 0v162.926933a33.578667 33.578667 0 0 1-33.536 33.595733z m-204.347733 0a33.5616 33.5616 0 0 1-33.536-33.536V310.391467a33.536 33.536 0 1 1 67.072 0v238.890666a33.527467 33.527467 0 0 1-33.536 33.536z" fill="#139A6B" p-id="35849"></path></svg>