<?xml version="1.0" standalone="no"?><!DOCTYPE svg PUBLIC "-//W3C//DTD SVG 1.1//EN" "http://www.w3.org/Graphics/SVG/1.1/DTD/svg11.dtd"><svg t="1716095219532" class="icon" viewBox="0 0 1024 1024" version="1.1" xmlns="http://www.w3.org/2000/svg" p-id="33195" xmlns:xlink="http://www.w3.org/1999/xlink" width="200" height="200"><path d="M843.776 6.144h-665.088c-96.256 0-174.08 78.336-174.08 174.08V296.96c0 21.504 17.408 39.424 39.424 39.424 21.504 0 39.424-17.408 39.424-39.424v-116.224c0-52.736 43.008-95.744 95.744-95.744h665.088c52.736 0 95.744 43.008 95.744 95.744v665.088c0 52.736-43.008 95.744-95.744 95.744H655.36c-21.504 0-39.424 17.408-39.424 39.424 0 21.504 17.408 39.424 39.424 39.424h188.928c96.256 0 174.08-78.336 174.08-174.08v-665.6c-0.512-96.256-78.848-174.592-174.592-174.592z" p-id="33196"></path><path d="M624.128 869.376l108.544-352.768c6.656-20.48-5.12-42.496-26.112-49.152-20.48-6.656-42.496 5.12-49.152 26.112l-77.312 252.416c-15.872-24.576-34.816-47.104-56.832-66.56-20.48-18.432-43.52-33.28-68.608-45.568 46.592-39.424 72.704-96.256 72.704-156.672 0-113.152-92.16-205.312-205.312-205.312s-205.312 92.16-205.312 205.312c0 60.928 26.624 117.248 72.704 156.672-25.088 12.288-48.128 27.648-69.12 45.568-54.784 48.64-90.624 115.2-100.864 187.392-1.536 10.24 1.024 20.48 7.68 29.184 6.144 8.192 15.36 13.824 26.112 15.36 2.048 0.512 3.584 0.512 5.632 0.512 19.968 0 36.352-14.848 38.912-33.792 15.36-111.616 111.616-195.584 224.256-195.584 112.64 0 209.408 83.968 224.256 195.584 3.072 21.504 23.04 36.352 44.544 33.28 20.48-3.072 35.328-21.504 33.28-41.984z m-302.08-518.656c69.632 0 126.464 56.832 126.464 126.464 0 68.608-55.808 125.44-124.928 126.464h-3.584c-68.608-1.024-124.928-57.856-124.928-126.464 0.512-70.144 57.344-126.464 126.976-126.464zM799.744 293.376h-120.832c-21.504 0-39.424 17.408-39.424 39.424s17.408 39.424 39.424 39.424h120.832c21.504 0 39.424-17.408 39.424-39.424s-17.408-39.424-39.424-39.424zM799.744 148.992h-279.04c-21.504 0-39.424 17.408-39.424 39.424s17.408 39.424 39.424 39.424h279.04c21.504 0 39.424-17.408 39.424-39.424s-17.408-39.424-39.424-39.424z" p-id="33197"></path></svg>