<?xml version="1.0" standalone="no"?><!DOCTYPE svg PUBLIC "-//W3C//DTD SVG 1.1//EN" "http://www.w3.org/Graphics/SVG/1.1/DTD/svg11.dtd"><svg t="1716094329065" class="icon" viewBox="0 0 1024 1024" version="1.1" xmlns="http://www.w3.org/2000/svg" p-id="19224" xmlns:xlink="http://www.w3.org/1999/xlink" width="200" height="200"><path d="M768 844.8H213.333333c-64 0-119.466667-51.2-119.466666-119.466667V256c0-64 51.2-119.466667 119.466666-119.466667h179.2l170.666667 128H810.666667c42.666667 0 76.8 34.133333 76.8 76.8v384c0 64-55.466667 119.466667-119.466667 119.466667zM213.333333 204.8c-29.866667 0-51.2 21.333333-51.2 51.2v469.333333c0 29.866667 25.6 51.2 51.2 51.2h554.666667c29.866667 0 51.2-25.6 51.2-51.2V341.333333c0-4.266667-4.266667-8.533333-8.533333-8.533333h-238.933334c-17.066667 0-29.866667-4.266667-42.666666-12.8L375.466667 204.8H213.333333z" fill="#7E8694" p-id="19225"></path><path d="M810.666667 204.8h-213.333334c-17.066667 0-34.133333-12.8-34.133333-34.133333s12.8-34.133333 34.133333-34.133334h213.333334c17.066667 0 34.133333 12.8 34.133333 34.133334s-17.066667 34.133333-34.133333 34.133333z" fill="#7E8694" p-id="19226"></path></svg>