<?xml version="1.0" standalone="no"?><!DOCTYPE svg PUBLIC "-//W3C//DTD SVG 1.1//EN" "http://www.w3.org/Graphics/SVG/1.1/DTD/svg11.dtd"><svg t="1715749740342" class="icon" viewBox="0 0 1024 1024" version="1.1" xmlns="http://www.w3.org/2000/svg" p-id="12763" xmlns:xlink="http://www.w3.org/1999/xlink" width="200" height="200"><path d="M634.448694 0a31.996 31.996 0 0 1 3.743532 63.768029L634.448694 63.992001H262.783152c-68.311461 0-95.508061 5.247344-123.568554 20.253468A131.535558 131.535558 0 0 0 84.309461 139.182602c-13.566304 25.404824-19.165604 50.073741-20.093488 105.138858L64.055993 262.687164v498.433696c0 68.311461 5.247344 95.508061 20.253468 123.568554 12.702412 23.741032 31.164104 42.202725 54.905137 54.905137 25.404824 13.566304 50.073741 19.165604 105.138858 20.093488L262.751156 959.880015h498.433696l18.429696-0.15998c55.065117-0.927884 79.734033-6.527184 105.138858-20.093488a131.535558 131.535558 0 0 0 54.905137-54.905137c13.566304-25.404824 19.165604-50.073741 20.093488-105.138858L959.944007 761.184852V396.974378a31.996 31.996 0 0 1 63.768029-3.743532l0.223972 3.743532v364.178478c0 77.974253-7.167104 115.153606-27.83652 153.740782a195.527559 195.527559 0 0 1-81.141858 81.173854c-36.763405 19.645544-72.214973 27.100612-142.862142 27.740532l-10.87864 0.063992H262.783152c-77.974253 0-115.153606-7.167104-153.740782-27.83652a195.527559 195.527559 0 0 1-81.173854-81.141858c-19.645544-36.763405-27.100612-72.214973-27.740532-142.862142L0.063992 262.687164c0-77.974253 7.167104-115.153606 27.83652-153.740782A195.527559 195.527559 0 0 1 109.010374 27.804524C145.805774 8.15898 181.257343 0.703912 251.904512 0.063992L634.448694 0z m323.671541 60.152481c50.297713 45.946257 54.521185 118.80115 10.846644 167.819023l-4.703412 4.991376-64.343957 64.151981-434.825647 435.689538L224.035996 795.35658l52.249468-231.331083v-0.095988L711.335083 128.303962l64.311961-64.439945C822.777153 16.829896 907.75853 15.03812 958.152231 60.152481zM738.531684 197.735283L340.501437 596.149481l-24.092988 106.738658 110.866142-28.732408L825.144857 275.293588 738.531684 197.735283z m92.180477-91.956505l-4.095488 3.615548-40.570929 40.698912 86.709162 77.68629 40.538932-40.314961c21.11736-21.43732 21.149356-54.009249 0.831896-76.054493l-3.775528-3.775528-4.15948-3.231596c-22.55718-16.189976-54.265217-15.582052-75.478565 1.375828z" fill="#40454A" p-id="12764"></path></svg>