<?xml version="1.0" standalone="no"?><!DOCTYPE svg PUBLIC "-//W3C//DTD SVG 1.1//EN" "http://www.w3.org/Graphics/SVG/1.1/DTD/svg11.dtd"><svg t="1716095648128" class="icon" viewBox="0 0 1024 1024" version="1.1" xmlns="http://www.w3.org/2000/svg" p-id="35995" xmlns:xlink="http://www.w3.org/1999/xlink" width="200" height="200"><path d="M424.846222 224.824889V500.622222A97.621333 97.621333 0 0 0 523.377778 599.153778h275.797333a319.943111 319.943111 0 0 1-438.954667 234.837333 320.170667 320.170667 0 0 1-195.470222-295.822222A320.398222 320.398222 0 0 1 424.846222 224.824889m22.755556-63.715556h-4.096a380.017778 380.017778 0 0 0 41.415111 757.76 379.790222 379.790222 0 0 0 377.742222-338.602666 37.319111 37.319111 0 0 0-37.319111-41.415111H523.377778A37.546667 37.546667 0 0 1 484.920889 500.622222V198.656a37.546667 37.546667 0 0 0-37.319111-37.546667z" p-id="35996"></path><path d="M601.201778 168.391111a318.577778 318.577778 0 0 1 79.644444 26.396445 319.715556 319.715556 0 0 1 148.366222 148.366222 318.577778 318.577778 0 0 1 26.396445 79.644444H601.201778V168.391111m-22.755556-63.488a37.546667 37.546667 0 0 0-37.546666 37.546667v302.876444a37.546667 37.546667 0 0 0 37.546666 37.546667h303.104a37.319111 37.319111 0 0 0 37.319111-41.642667A380.472889 380.472889 0 0 0 582.769778 104.903111z" p-id="35997"></path></svg>