<?xml version="1.0" standalone="no"?><!DOCTYPE svg PUBLIC "-//W3C//DTD SVG 1.1//EN" "http://www.w3.org/Graphics/SVG/1.1/DTD/svg11.dtd"><svg t="1716094164946" class="icon" viewBox="0 0 1129 1024" version="1.1" xmlns="http://www.w3.org/2000/svg" p-id="18212" xmlns:xlink="http://www.w3.org/1999/xlink" width="220.5078125" height="200"><path d="M406.956759 715.222432a177.534595 177.534595 0 0 1-113.698925-40.812016h-1.628758l-10.121566-10.109932a179.012111 179.012111 0 0 1 253.155491-253.155491l0.290849 0.302484a178.837601 178.837601 0 0 1-126.577745 303.763321z m-81.670568-105.171215l5.200391 5.060783c42.847963 41.626395 112.023632 41.079597 154.220092-1.163399s42.545479-111.302325 0.96562-154.057215A109.941148 109.941148 0 0 0 325.286191 610.051217zM989.470336 342.993115H599.0222a34.541298 34.541298 0 0 1 0-69.070963H989.470336a34.541298 34.541298 0 0 1 0 69.070963z" p-id="18213"></path><path d="M663.823491 1024H186.911586a37.124043 37.124043 0 0 1-37.089141-37.089141V795.322411a103.833307 103.833307 0 0 1 103.716967-103.716967h306.567112a103.833307 103.833307 0 0 1 103.716967 103.716967z m-444.918449-69.070963h375.870754V795.322411a34.680906 34.680906 0 0 0-34.646004-34.646004H253.539412a34.680906 34.680906 0 0 0-34.63437 34.646004z" p-id="18214"></path><path d="M639.880752 804.524893a34.529664 34.529664 0 0 1-24.431367-58.937763l205.99132-206.317072a34.529664 34.529664 0 1 1 48.862733 48.792929L664.323752 794.426595a34.413325 34.413325 0 0 1-24.443 10.098298z" p-id="18215"></path><path d="M1003.652162 1024H126.286896A126.438138 126.438138 0 0 1 0 897.713104v-771.449476A126.426504 126.426504 0 0 1 126.286896 0h877.365266a126.426504 126.426504 0 0 1 126.286896 126.263628v771.449476a126.426504 126.426504 0 0 1-126.286896 126.286896zM126.286896 69.070963a57.274103 57.274103 0 0 0-57.204299 57.192665v771.449476a57.274103 57.274103 0 0 0 57.204299 57.215933h877.365266a57.274103 57.274103 0 0 0 57.215933-57.215933v-771.449476a57.274103 57.274103 0 0 0-57.215933-57.215933z" p-id="18216"></path></svg>