<?xml version="1.0" standalone="no"?><!DOCTYPE svg PUBLIC "-//W3C//DTD SVG 1.1//EN" "http://www.w3.org/Graphics/SVG/1.1/DTD/svg11.dtd"><svg t="1716095051115" class="icon" viewBox="0 0 1024 1024" version="1.1" xmlns="http://www.w3.org/2000/svg" p-id="31093" xmlns:xlink="http://www.w3.org/1999/xlink" width="200" height="200"><path d="M855.398524 146.360771V36.282244C854.888527 15.876332 836.676605-0.287599 814.733699 0.0044H81.195851C37.16704-0.434598 1.034196 32.186262 0.157199 73.146086v841.419384c0.145999 29.256874 13.89694 56.538757 35.399848 77.749666 21.429908 21.210909 58.001751 31.889863 79.504659 31.669864h740.630817c21.211909 0.439998 59.976742-8.995961 81.919648-31.669864 22.160905-22.673903 31.303865-58.000751 31.742864-77.749666v-695.137013c0-32.912859-12.433947-73.433684-73.287685-73.067686H855.398524zM75.711875 73.292085h709.471951v73.141686H72.419889V73.292085a8.045965 8.045965 0 0 1 3.290986 0z m780.053648 877.625229H115.060706c-21.941906 0.145999-39.934828-16.017931-40.446827-36.351844v-695.137013h821.379471v695.137013c-0.511998 20.333913-18.50492 36.497843-40.374826 36.351844zM244.521149 548.492043c-21.575907-0.145999-39.203832 15.871932-39.641829 35.839846a34.156853 34.156853 0 0 0 11.55595 25.891889c7.533968 6.582972 17.553925 10.385955 27.93988 10.459955h246.998939a42.714816 42.714816 0 0 0 27.93988-10.459955 34.156853 34.156853 0 0 0 11.55695-25.59989c-0.292999-19.893915-17.699924-35.984845-39.130832-36.131845H244.521149z m442.1411-74.45768c20.771911-0.730997 37.30184-16.529929 37.30184-35.839846s-16.529929-35.106849-37.30184-35.838846H241.96116c-20.771911 0.731997-37.22884 16.529929-37.22884 35.839846s16.456929 35.107849 37.22984 35.839846h444.700089z" fill="#666666" p-id="31094"></path></svg>