<?xml version="1.0" standalone="no"?><!DOCTYPE svg PUBLIC "-//W3C//DTD SVG 1.1//EN" "http://www.w3.org/Graphics/SVG/1.1/DTD/svg11.dtd"><svg t="1715749700825" class="icon" viewBox="0 0 1024 1024" version="1.1" xmlns="http://www.w3.org/2000/svg" p-id="11691" xmlns:xlink="http://www.w3.org/1999/xlink" width="200" height="200"><path d="M752.64 215.04c25.6 0 46.08 20.48 46.08 48.64v655.36c0 25.6-20.48 46.08-46.08 48.64H140.8c-25.6 0-46.08-20.48-46.08-46.08V261.12c0-25.6 20.48-46.08 46.08-48.64h611.84m0-56.32H140.8c-58.88 0-104.96 46.08-104.96 104.96v655.36c0 58.88 46.08 104.96 104.96 104.96h611.84c58.88 0 104.96-46.08 104.96-104.96V261.12c0-56.32-46.08-104.96-104.96-104.96z" p-id="11692"></path><path d="M281.6 366.08H212.48c-15.36 0-28.16 12.8-28.16 28.16 0 15.36 12.8 28.16 28.16 28.16H281.6c15.36 0 28.16-12.8 28.16-28.16 0-15.36-12.8-28.16-28.16-28.16zM680.96 366.08h-256c-15.36 0-28.16 12.8-28.16 28.16s12.8 28.16 28.16 28.16h256c15.36 0 28.16-12.8 28.16-28.16 0-15.36-12.8-28.16-28.16-28.16zM281.6 547.84H212.48c-15.36 0-28.16 12.8-28.16 28.16 0 15.36 12.8 28.16 28.16 28.16H281.6c15.36 0 28.16-12.8 28.16-28.16 0-15.36-12.8-28.16-28.16-28.16zM680.96 547.84h-256c-15.36 0-28.16 12.8-28.16 28.16 0 15.36 12.8 28.16 28.16 28.16h256c15.36 0 28.16-12.8 28.16-28.16 0-15.36-12.8-28.16-28.16-28.16zM281.6 729.6H212.48c-15.36 2.56-28.16 15.36-25.6 33.28 2.56 15.36 12.8 25.6 25.6 25.6H281.6c15.36-2.56 28.16-15.36 25.6-33.28 0-12.8-10.24-23.04-25.6-25.6zM680.96 729.6h-256c-15.36-2.56-30.72 10.24-33.28 25.6-2.56 15.36 10.24 30.72 25.6 33.28h261.12c15.36 2.56 30.72-10.24 33.28-25.6s-10.24-30.72-25.6-33.28h-5.12z" p-id="11693"></path><path d="M883.2 0H271.36C212.48 0 166.4 48.64 166.4 104.96v102.4h58.88v-102.4c0-25.6 20.48-46.08 46.08-48.64h611.84c25.6 0 48.64 20.48 48.64 46.08v655.36c0 25.6-20.48 46.08-46.08 48.64h-56.32v58.88h53.76c58.88 0 104.96-46.08 104.96-104.96V104.96c0-58.88-46.08-104.96-104.96-104.96z" p-id="11694"></path></svg>