<?xml version="1.0" standalone="no"?><!DOCTYPE svg PUBLIC "-//W3C//DTD SVG 1.1//EN" "http://www.w3.org/Graphics/SVG/1.1/DTD/svg11.dtd"><svg t="1716094815659" class="icon" viewBox="0 0 1024 1024" version="1.1" xmlns="http://www.w3.org/2000/svg" p-id="28090" xmlns:xlink="http://www.w3.org/1999/xlink" width="200" height="200"><path d="M214.770617 960.377193a90.07384 90.07384 0 0 1-90.502537-89.692777V149.71263A89.835676 89.835676 0 0 1 214.484819 60.019853h539.871447a89.645144 89.645144 0 0 1 90.216739 89.454613v61.160661a30.008736 30.008736 0 0 0 60.017472 0V149.474466A149.662616 149.662616 0 0 0 754.356266 0.002382H214.627718A149.853147 149.853147 0 0 0 64.393507 149.71263V870.732049a150.091312 150.091312 0 0 0 150.37711 149.710249h179.81425a30.008736 30.008736 0 1 0 0-60.017472z" fill="#555555" p-id="28091"></path><path d="M724.633328 270.128637a30.008736 30.008736 0 0 0 0-60.017472H244.350656a30.008736 30.008736 0 1 0 0 60.017472z m-120.034943 180.052415a30.008736 30.008736 0 1 0 0-60.017472H244.350656a30.008736 30.008736 0 1 0 0 60.017472h360.152463z m-120.034943 180.052414a30.008736 30.008736 0 1 0 0-60.017471H244.350656a30.008736 30.008736 0 1 0 0 60.017471z m385.064476-237.164278a60.112737 60.112737 0 0 1 21.768242 82.309675l-239.736456 415.216111a164.428819 164.428819 0 0 1-111.556285 71.735169l-7.811798 1.714785 1.000292-0.333431a9.955279 9.955279 0 0 1 5.858848 1.714785 9.526583 9.526583 0 0 1 4.144063 3.667734c0-0.285797-2.238747-6.525709-2.238746-6.525709a165.381477 165.381477 0 0 1 6.620975-131.990804l239.736456-415.216112a60.017472 60.017472 0 0 1 82.214409-22.196937z m-373.870742 407.499579a224.351025 224.351025 0 0 0-9.193152 187.054453l27.29366-12.527456-29.389508 6.001747a60.446168 60.446168 0 0 0 4.286962 12.860886 49.681129 49.681129 0 0 0 20.482153 23.435394 49.014268 49.014268 0 0 0 30.199267 6.04938 56.159206 56.159206 0 0 0 13.384849-2.95324l-10.193443-28.246318 2.381645 29.91347a223.350734 223.350734 0 0 0 158.808136-101.553373l239.688823-415.216111a120.034943 120.034943 0 1 0-207.91767-120.034943z" fill="#555555" p-id="28092"></path><path d="M846.573588 583.076882l26.007571 15.004367 30.008736-51.967509-26.007571-15.004368-103.982652-60.017471-26.007571-15.004368-30.008735 51.967509 26.007571 15.004368z" fill="#555555" p-id="28093"></path></svg>