<?xml version="1.0" standalone="no"?><!DOCTYPE svg PUBLIC "-//W3C//DTD SVG 1.1//EN" "http://www.w3.org/Graphics/SVG/1.1/DTD/svg11.dtd"><svg t="1716095467047" class="icon" viewBox="0 0 1025 1024" version="1.1" xmlns="http://www.w3.org/2000/svg" p-id="35701" xmlns:xlink="http://www.w3.org/1999/xlink" width="200.1953125" height="200"><path d="M147.965 824.39c-31.361 0-60.676-15.647-78.385-41.801-10.52-15.496-16.113-33.748-16.113-52.936V255.045l55.225-3.689 3.713 203.516v274.782c0 19.629 15.952 35.557 35.561 35.557h729.217c19.59 0 35.488-15.928 35.488-35.557l-0.074-474.608 55.298-3.689 3.694 209.091v269.207c0 52.216-42.369 94.736-94.406 94.736H147.965z" fill="#555555" p-id="35702"></path><path d="M28.807 261.415C12.909 261.415 0 248.523 0 232.673c0-15.939 12.909-28.908 28.807-28.908h967.389c15.896 0 28.807 12.969 28.807 28.908 0 15.851-12.91 28.742-28.807 28.742H28.807zM336.125 347.456V488.62l104.057-93.573c-27.575-26.431-63.715-43.747-104.057-47.591z m0 0M493.887 520.485c0-40.119-13.797-77.065-36.719-106.466L341.631 517.958l121.187 101.677c19.536-28.239 31.069-62.278 31.069-99.15z m0 0" fill="#555555" p-id="35703"></path><path d="M310.723 525.2l0.869-1.023h-0.869V347.179c-91.729 4.841-164.588 80.453-164.588 173.307 0 96.114 77.805 173.965 173.875 173.965 50.064 0 95.059-21.147 126.709-55.034L310.723 525.2z m0 0M852.066 445.455H586.338c-14.883 0-26.922-12.021-26.922-26.797s12.039-26.873 26.922-26.873h265.729c14.811 0 26.781 12.097 26.781 26.873s-11.971 26.797-26.782 26.797zM852.066 547.573H586.338c-14.883 0-26.922-11.882-26.922-26.873 0-14.7 12.039-26.721 26.922-26.721h265.729c14.811 0 26.781 12.021 26.781 26.721 0 14.991-11.971 26.873-26.782 26.873zM852.066 649.906H586.338c-14.883 0-26.922-12.096-26.922-26.936 0-14.776 12.039-26.872 26.922-26.872h265.729c14.811 0 26.781 12.096 26.781 26.872 0 14.841-11.971 26.936-26.782 26.936z" fill="#555555" p-id="35704"></path></svg>