<?xml version="1.0" standalone="no"?><!DOCTYPE svg PUBLIC "-//W3C//DTD SVG 1.1//EN" "http://www.w3.org/Graphics/SVG/1.1/DTD/svg11.dtd"><svg t="1716095074906" class="icon" viewBox="0 0 1024 1024" version="1.1" xmlns="http://www.w3.org/2000/svg" p-id="32175" xmlns:xlink="http://www.w3.org/1999/xlink" width="200" height="200"><path d="M908.004 62.46H746.91v61.463h161.094c19.53 0 36.613 13.442 36.613 28.807v779.757c0 15.365-17.082 28.807-36.613 28.807H114.716c-19.521 0-36.613-13.447-36.613-28.807V152.73c0-15.365 17.092-28.807 36.613-28.807H253.85V62.459H114.716C51.256 62.46 0 102.796 0 152.73v779.758c0 49.939 51.256 90.27 114.716 90.27h793.288c63.465 0 114.716-40.331 114.716-90.27V152.73c0-23.045-12.204-46.094-31.725-63.381-24.409-17.287-53.7-26.89-82.99-26.89z m0 0" p-id="32176"></path><path d="M700.532 181.537H297.79c-46.378 0-82.991-28.807-82.991-65.299V66.304c0-34.574 36.613-65.299 82.99-65.299h402.744c43.93 0 82.99 28.807 82.99 65.299v53.774c-4.886 36.492-39.06 61.459-82.99 61.459zM297.79 62.459c-4.883 0-7.327 3.845-7.327 5.767v49.934c0 3.845 4.878 5.763 7.327 5.763h402.743c4.883 0 7.317-3.845 7.317-5.763V66.304c0-1.922-4.878-3.845-7.317-3.845H297.79z m549.199 295.769H663.92c-21.97 0-36.613-13.443-36.613-28.807 0-15.36 17.087-28.807 36.613-28.807h183.068c19.525 0 36.608 13.447 36.608 28.807 0 15.37-14.644 28.807-36.608 28.807z m21.964 209.343H600.455c-19.53-1.918-34.174-13.443-34.174-28.807 0-15.36 14.644-28.807 34.174-28.807h268.497c19.522 0 36.613 13.447 36.613 28.807 0.005 15.369-17.087 28.807-36.613 28.807z m0 209.347h-641.95c-19.526-1.918-34.173-13.442-34.173-28.807 0-15.36 14.643-28.807 34.173-28.807h641.95c19.522 0 36.613 13.452 36.613 28.807 0.005 15.365-17.087 28.807-36.613 28.807z m-546.75-184.371c-90.317 0-168.425-51.856-185.512-122.922-7.317-34.565 0-71.06 21.97-101.795 14.643-19.205 34.173-34.565 56.143-48.012 29.286-11.524 58.582-21.127 90.307-23.044h9.765c4.878 0 12.205 1.917 17.083 5.762 4.887 3.84 9.765 9.602 9.765 15.36 0 5.762-4.878 11.525-9.765 15.37-4.878 1.922-9.756 3.84-14.644 3.84h-9.765c-21.965 1.922-43.93 7.684-63.46 19.204-53.7 30.734-73.225 86.426-46.378 132.52 12.204 17.282 29.291 34.574 48.817 44.171 58.582 30.734 139.134 19.21 180.629-24.967 17.087-17.287 24.408-36.491 26.847-59.536v-1.922c0-5.763 4.888-11.52 12.205-15.365 7.326-3.84 17.091-3.84 26.856 0 9.766 3.845 14.644 9.602 14.644 17.287v7.685c-2.44 28.807-17.083 57.614-39.052 78.74-36.617 38.415-90.322 57.624-146.455 57.624z m0 0" p-id="32177"></path><path d="M515.025 410.089H383.223c-9.766-1.923-17.087-5.763-21.97-13.443 0-1.922-2.439-3.844-2.439-5.762V260.282c0-7.684 7.322-13.442 14.643-17.287 2.44-1.922 4.878-1.922 9.766-1.922h7.317c21.97 0 43.939 3.845 63.46 9.602 68.347 21.127 114.72 69.139 122.051 126.757v15.365l-2.443 5.762c-4.883 5.758-12.205 9.603-21.965 11.525h-36.618zM414.943 367.83h104.965c-2.439-9.602-7.326-15.36-9.765-23.045-14.643-24.971-39.056-44.176-70.786-53.778-7.317-3.84-17.083-5.762-24.414-7.68v84.503z m0 0" p-id="32178"></path></svg>