<?xml version="1.0" standalone="no"?><!DOCTYPE svg PUBLIC "-//W3C//DTD SVG 1.1//EN" "http://www.w3.org/Graphics/SVG/1.1/DTD/svg11.dtd"><svg t="1715749600860" class="icon" viewBox="0 0 1024 1024" version="1.1" xmlns="http://www.w3.org/2000/svg" p-id="7619" xmlns:xlink="http://www.w3.org/1999/xlink" width="200" height="200"><path d="M989.866667 783.36H163.84c-71.68 0-129.706667-58.026667-129.706667-129.706667V168.96h826.026667c71.68 0 129.706667 58.026667 129.706667 129.706667v484.693333z m-904.533334-563.2v433.493333c0 42.666667 35.84 78.506667 78.506667 78.506667H938.666667V298.666667c0-42.666667-35.84-78.506667-78.506667-78.506667H85.333333z" fill="#333333" p-id="7620"></path><path d="M508.586667 370.346667H168.96c-13.653333 0-25.6-11.946667-25.6-25.6s11.946667-25.6 25.6-25.6h339.626667c13.653333 0 25.6 11.946667 25.6 25.6s-11.946667 25.6-25.6 25.6zM508.586667 573.44H168.96c-13.653333 0-25.6-11.946667-25.6-25.6s11.946667-25.6 25.6-25.6h339.626667c13.653333 0 25.6 11.946667 25.6 25.6s-11.946667 25.6-25.6 25.6zM680.96 476.16c-5.12 0-10.24-1.706667-13.653333-3.413333-11.946667-6.826667-15.36-23.893333-8.533334-35.84l97.28-151.893334c6.826667-11.946667 23.893333-15.36 35.84-8.533333s15.36 23.893333 8.533334 35.84l-97.28 151.893333c-5.12 8.533333-13.653333 11.946667-22.186667 11.946667z" fill="#333333" p-id="7621"></path><path d="M875.52 476.16c-8.533333 0-17.066667-3.413333-22.186667-11.946667l-97.28-151.893333c-6.826667-11.946667-3.413333-27.306667 8.533334-35.84 11.946667-6.826667 27.306667-3.413333 35.84 8.533333l97.28 151.893334c6.826667 11.946667 3.413333 27.306667-8.533334 35.84-5.12 1.706667-8.533333 3.413333-13.653333 3.413333z" fill="#333333" p-id="7622"></path><path d="M645.12 658.773333c-10.24 0-20.48-6.826667-23.893333-18.773333-3.413333-13.653333 3.413333-27.306667 17.066666-32.426667 162.133333-47.786667 116.053333-271.36 114.346667-273.066666-3.413333-13.653333 5.12-27.306667 18.773333-30.72 13.653333-3.413333 27.306667 5.12 30.72 18.773333 20.48 93.866667 15.36 285.013333-150.186666 334.506667-1.706667 1.706667-3.413333 1.706667-6.826667 1.706666z" fill="#333333" p-id="7623"></path><path d="M512 220.16c-13.653333 0-25.6-11.946667-25.6-25.6V97.28c0-13.653333 11.946667-25.6 25.6-25.6s25.6 11.946667 25.6 25.6v97.28c0 15.36-11.946667 25.6-25.6 25.6z" fill="#333333" p-id="7624"></path><path d="M314.026667 952.32c-5.12 0-10.24-1.706667-13.653334-3.413333-11.946667-6.826667-15.36-23.893333-8.533333-35.84l107.52-168.96c6.826667-11.946667 23.893333-15.36 35.84-8.533334 11.946667 6.826667 15.36 23.893333 8.533333 35.84l-107.52 168.96c-6.826667 8.533333-13.653333 11.946667-22.186666 11.946667zM709.973333 952.32c-8.533333 0-17.066667-3.413333-22.186666-11.946667L580.266667 771.413333c-6.826667-11.946667-3.413333-27.306667 8.533333-35.84 11.946667-6.826667 27.306667-3.413333 35.84 8.533334l107.52 168.96c6.826667 11.946667 3.413333 27.306667-8.533333 35.84-3.413333 1.706667-8.533333 3.413333-13.653334 3.413333z" fill="#333333" p-id="7625"></path><path d="M798.72 660.48H175.786667c-56.32 0-104.106667-46.08-104.106667-104.106667V208.213333h622.933333c56.32 0 104.106667 46.08 104.106667 104.106667v348.16z" fill="#333333" opacity=".3" p-id="7626"></path><path d="M824.32 686.08h-648.533333c-71.68 0-129.706667-58.026667-129.706667-129.706667V182.613333h648.533333c71.68 0 129.706667 58.026667 129.706667 129.706667v373.76zM98.986667 233.813333v322.56c0 42.666667 35.84 78.506667 78.506666 78.506667h597.333334V312.32c0-42.666667-35.84-78.506667-78.506667-78.506667h-597.333333z" fill="#333333" opacity=".3" p-id="7627"></path></svg>