<?xml version="1.0" standalone="no"?><!DOCTYPE svg PUBLIC "-//W3C//DTD SVG 1.1//EN" "http://www.w3.org/Graphics/SVG/1.1/DTD/svg11.dtd"><svg t="1716095455854" class="icon" viewBox="0 0 1088 1024" version="1.1" xmlns="http://www.w3.org/2000/svg" p-id="35557" xmlns:xlink="http://www.w3.org/1999/xlink" width="212.5" height="200"><path d="M66.368 672.384a35.072 35.072 0 0 0-35.008 35.072v279.232a35.072 35.072 0 1 0 70.08 0v-279.232a35.072 35.072 0 0 0-35.072-35.072zM302.72 531.072a35.072 35.072 0 0 0-35.072 35.072v420.48a35.072 35.072 0 1 0 70.144 0v-420.48a35.072 35.072 0 0 0-35.072-35.072z m231.808 69.44a35.072 35.072 0 0 0-35.072 35.072v351.104a35.072 35.072 0 1 0 70.144 0V635.52a35.072 35.072 0 0 0-35.072-35.072z m236.352-138.88a35.072 35.072 0 0 0-35.072 35.072v489.984a35.072 35.072 0 1 0 70.08 0V496.64a35.072 35.072 0 0 0-35.008-35.072z m236.288-70.656a35.072 35.072 0 0 0-35.008 35.072v560.64a35.072 35.072 0 1 0 70.08 0v-560.64a35.072 35.072 0 0 0-35.072-35.072z" fill="#575757" p-id="35558"></path><path d="M1058.24 12.16a35.84 35.84 0 0 0-2.688-2.688 34.944 34.944 0 0 0-23.424-8.96h-162.24a35.072 35.072 0 0 0 0 70.144h65.92l-403.776 346.88-264.96-99.328a34.944 34.944 0 0 0-12.672-2.24 34.944 34.944 0 0 0-26.816 12.032L9.6 577.92a35.072 35.072 0 0 0 52.8 46.08l202.24-231.808 260.288 97.536a35.2 35.2 0 0 0 12.288 2.944h0.256a34.432 34.432 0 0 0 4.16 0 35.2 35.2 0 0 0 22.272-10.048l431.552-370.752a35.072 35.072 0 0 0 1.664-1.6v87.552a35.072 35.072 0 1 0 70.144 0V35.584a34.88 34.88 0 0 0-8.96-23.424z" fill="#575757" p-id="35559"></path></svg>