<?xml version="1.0" standalone="no"?><!DOCTYPE svg PUBLIC "-//W3C//DTD SVG 1.1//EN" "http://www.w3.org/Graphics/SVG/1.1/DTD/svg11.dtd"><svg t="1715749881514" class="icon" viewBox="0 0 1024 1024" version="1.1" xmlns="http://www.w3.org/2000/svg" p-id="17270" xmlns:xlink="http://www.w3.org/1999/xlink" width="200" height="200"><path d="M793.6 99.555556a130.844444 130.844444 0 0 1 130.844444 130.844444v409.6a130.844444 130.844444 0 0 1-130.844444 130.844444h-563.2a130.844444 130.844444 0 0 1-130.844444-130.844444v-409.6a130.844444 130.844444 0 0 1 130.844444-130.844444z m0 56.888888h-563.2a73.955556 73.955556 0 0 0-73.955556 73.955556v409.6a73.955556 73.955556 0 0 0 73.955556 73.955556h563.2a73.955556 73.955556 0 0 0 73.955556-73.955556v-409.6a73.955556 73.955556 0 0 0-73.955556-73.955556zM451.356444 335.018667l3.982223 3.242666 133.461333 133.518223 133.461333-133.518223a28.444444 28.444444 0 0 1 36.295111-3.242666l3.982223 3.242666a28.444444 28.444444 0 0 1 3.242666 36.295111l-3.242666 3.982223-153.6 153.6a28.444444 28.444444 0 0 1-36.295111 3.242666l-3.982223-3.242666L435.2 398.620444 301.738667 532.138667a28.444444 28.444444 0 0 1-36.295111 3.242666l-3.982223-3.242666a28.444444 28.444444 0 0 1-3.242666-36.295111l3.242666-3.982223 153.6-153.6a28.444444 28.444444 0 0 1 36.295111-3.242666zM819.2 867.555556a28.444444 28.444444 0 0 1 5.12 56.433777l-5.12 0.455111H204.8a28.444444 28.444444 0 0 1-5.12-56.433777l5.12-0.455111h614.4z" fill="#666666" p-id="17271"></path></svg>